# File created by Blade
# Date/Time:  Thu Jan 22 18:25:17 2015
#---------------------------------------------------------
:version 1.10
:name HOM
:units
  mass 1.0
  length 1.000000
  angle deg
:documentation
     Acclaim Skeleton File
:root
   axis xyz
   order TX TY TZ RX RY RZ
   position 0.000000 0.000000 0.000000
   orientation 0 0 0
:bonedata
   begin
      id 1
      name RightUpLeg_dum
      direction -1.000000 0.000000 0.000000
      length 4.478084
      axis 0.0 0.0 0.0 xyz
   end
   begin
      id 2
      name LeftUpLeg_dum
      direction 1.000000 0.000000 0.000000
      length 4.478084
      axis 0.0 0.0 0.0 xyz
   end
   begin
      id 3
      name Spine_dum
      direction 0.000000 1.000000 0.000000
      length 6.068208
      axis 0.0 0.0 0.0 xyz
   end
   begin
      id 4
      name RightUpLeg
      direction 0.000000 -1.000000 0.000000
      length 16.405774
      axis 0.0 0.0 0.0 xyz
      dof rx ry rz
   end
   begin
      id 5
      name RightLeg
      direction 0.000000 -1.000000 0.000000
      length 14.644143
      axis 0.0 0.0 0.0 xyz
      dof rx ry rz
   end
   begin
      id 6
      name RightFoot
      direction 0.000000 -0.258819 0.965926
      length 5.806150
      axis 15.0 0.0 0.0 xyz
      dof rx ry rz
   end
   begin
      id 7
      name RightToeBase
      direction 0.000000 0.000000 1.000000
      length 2.952750
      axis 0.0 0.0 0.0 xyz
      dof rx ry rz
   end
   begin
      id 8
      name LeftUpLeg
      direction 0.000000 -1.000000 0.000000
      length 16.405774
      axis 0.0 0.0 0.0 xyz
      dof rx ry rz
   end
   begin
      id 9
      name LeftLeg
      direction 0.000000 -1.000000 0.000000
      length 14.644143
      axis 0.0 0.0 0.0 xyz
      dof rx ry rz
   end
   begin
      id 10
      name LeftFoot
      direction 0.000000 -0.258819 0.965926
      length 5.806150
      axis 15.0 0.0 0.0 xyz
      dof rx ry rz
   end
   begin
      id 11
      name LeftToeBase
      direction 0.000000 0.000000 1.000000
      length 2.952750
      axis 0.0 0.0 0.0 xyz
      dof rx ry rz
   end
   begin
      id 12
      name Spine
      direction 0.000000 1.000000 0.000000
      length 0.000000
      axis 0.0 0.0 0.0 xyz
      dof rx ry rz
   end
   begin
      id 13
      name Spine_dum1
      direction 0.000000 1.000000 0.000000
      length 10.013923
      axis 0.0 0.0 0.0 xyz
   end
   begin
      id 14
      name Spine_dum2
      direction 0.000000 1.000000 0.000000
      length 10.013923
      axis 0.0 0.0 0.0 xyz
   end
   begin
      id 15
      name Spine_dum3
      direction 0.000000 1.000000 0.000000
      length 15.777476
      axis 0.0 0.0 0.0 xyz
   end
   begin
      id 16
      name RightShoulder
      direction -1.000000 0.000000 0.000000
      length 7.190220
      axis 0.0 0.0 90.0 xyz
      dof rx ry rz
   end
   begin
      id 17
      name RightArm
      direction -1.000000 0.000000 0.000000
      length 10.177469
      axis 0.0 0.0 90.0 xyz
      dof rx ry rz
   end
   begin
      id 18
      name RightForeArm
      direction -1.000000 0.000000 0.000000
      length 8.392114
      axis 0.0 0.0 90.0 xyz
      dof ry rz rx
   end
   begin
      id 19
      name RightHand
      direction -1.000000 0.000000 0.000000
      length 0.000000
      axis 0.0 0.0 90.0 xyz
      dof rx ry rz
   end
   begin
      id 20
      name RightHand_dum1
      direction -1.000000 0.000000 0.000000
      length 3.937000
      axis 0.0 0.0 90.0 xyz
   end
   begin
      id 21
      name RightHand_dum2
      direction 0.000000 0.000000 0.000000
      length 0.000000
      axis 0.0 0.0 90.0 xyz
   end
   begin
      id 22
      name RightHandThumb1
      direction 0.000000 0.000000 1.000000
      length 3.937000
      axis 0.0 0.0 90.0 xyz
      dof rx rz ry
   end
   begin
      id 23
      name LeftShoulder
      direction 1.000000 0.000000 0.000000
      length 7.190220
      axis 0.0 0.0 -90.0 xyz
      dof rx ry rz
   end
   begin
      id 24
      name LeftArm
      direction 1.000000 0.000000 0.000000
      length 10.177469
      axis 0.0 0.0 -90.0 xyz
      dof rx ry rz
   end
   begin
      id 25
      name LeftForeArm
      direction 1.000000 0.000000 0.000000
      length 8.392114
      axis 0.0 0.0 -90.0 xyz
      dof ry rz rx
   end
   begin
      id 26
      name LeftHand
      direction 1.000000 0.000000 0.000000
      length 0.000000
      axis 0.0 0.0 -90.0 xyz
      dof rx ry rz
   end
   begin
      id 27
      name LeftHand_dum1
      direction 1.000000 0.000000 0.000000
      length 3.937000
      axis 0.0 0.0 -90.0 xyz
   end
   begin
      id 28
      name LeftHand_dum2
      direction 0.000000 0.000000 0.000000
      length 0.000000
      axis 0.0 0.0 -90.0 xyz
   end
   begin
      id 29
      name LeftHandThumb1
      direction 0.000000 0.000000 1.000000
      length 3.937000
      axis 0.0 0.0 -90.0 xyz
      dof rx rz ry
   end
   begin
      id 30
      name Head
      direction 0.000000 1.000000 0.000000
      length 4.527550
      axis 0.0 0.0 0.0 xyz
      dof rx ry rz
   end
:hierarchy
   begin
      root RightUpLeg_dum LeftUpLeg_dum Spine_dum
      RightUpLeg_dum RightUpLeg
      LeftUpLeg_dum LeftUpLeg
      Spine_dum Spine
      RightUpLeg RightLeg
      RightLeg RightFoot
      RightFoot RightToeBase
      LeftUpLeg LeftLeg
      LeftLeg LeftFoot
      LeftFoot LeftToeBase
      Spine Spine_dum1 Spine_dum2 Spine_dum3
      Spine_dum1 RightShoulder
      Spine_dum2 LeftShoulder
      Spine_dum3 Head
      RightShoulder RightArm
      RightArm RightForeArm
      RightForeArm RightHand
      RightHand RightHand_dum1 RightHand_dum2
      RightHand_dum2 RightHandThumb1
      LeftShoulder LeftArm
      LeftArm LeftForeArm
      LeftForeArm LeftHand
      LeftHand LeftHand_dum1 LeftHand_dum2
      LeftHand_dum2 LeftHandThumb1
   end

# File created by Blade
# Date/Time:  Thu Jan 22 18:25:10 2015
# Frame Rate: 120.000 fps
#------------------------------------------------------
:FULLY-SPECIFIED
:DEGREES
445
root -2.872999 33.183509 0.202480 4.310313 0.145280 2.812997
RightUpLeg 2.496977 -6.097228 -2.303385
RightLeg 2.164311 -0.000000 -0.000000
RightFoot -13.129912 -4.627807 3.475316
RightToeBase 5.646502 -0.000000 -0.000000
LeftUpLeg 2.137193 1.276286 0.779917
LeftLeg 2.408905 -0.000000 -0.000000
LeftFoot -11.129204 2.723324 -9.337917
LeftToeBase 8.521893 -0.000000 -0.000000
Spine -10.964872 -1.892228 -1.961170
RightShoulder -28.370702 19.705940 -61.646226
RightArm 113.951616 46.190068 88.446767
RightForeArm 7.422291 -0.000000 143.140224
RightHand 7.750878 -0.000000 -11.161198
RightHandThumb1 -24.326973 -0.000000 -32.862282
LeftShoulder -21.081626 -15.387771 58.423312
LeftArm 35.824878 -57.497268 -26.917028
LeftForeArm -62.067741 0.000000 105.258283
LeftHand -10.574340 -0.000000 -9.889117
LeftHandThumb1 -26.253704 0.000000 33.147579
Head 29.644766 -7.167926 4.977694
446
root -2.877473 33.185954 0.197923 4.308192 0.131915 2.808645
RightUpLeg 2.486985 -6.104740 -2.292270
RightLeg 2.165233 -0.000000 -0.000000
RightFoot -13.101995 -4.611382 3.467290
RightToeBase 5.648898 -0.000000 -0.000000
LeftUpLeg 2.124718 1.326657 0.791461
LeftLeg 2.423530 -0.000000 -0.000000
LeftFoot -11.107388 2.692617 -9.345775
LeftToeBase 8.492832 -0.000000 -0.000000
Spine -10.894093 -1.884129 -1.947649
RightShoulder -28.421781 19.712084 -61.626755
RightArm 114.208937 46.149838 88.535110
RightForeArm 7.224932 -0.000000 143.395186
RightHand 7.884493 0.000000 -10.821312
RightHandThumb1 -24.326973 -0.000000 -32.862282
LeftShoulder -21.063124 -15.371989 58.340797
LeftArm 35.442518 -57.657516 -26.562814
LeftForeArm -62.009111 -0.000000 105.404269
LeftHand -10.671021 0.000000 -9.646186
LeftHandThumb1 -26.253704 0.000000 33.147579
Head 29.374768 -7.131935 4.844884
447
root -2.882364 33.189314 0.192691 4.320584 0.109557 2.797807
RightUpLeg 2.457118 -6.091605 -2.272405
RightLeg 2.172104 -0.000000 -0.000000
RightFoot -13.066515 -4.606849 3.464852
RightToeBase 5.634497 -0.000000 -0.000000
LeftUpLeg 2.110217 1.363191 0.805257
LeftLeg 2.415147 -0.000000 -0.000000
LeftFoot -11.088630 2.701852 -9.403098
LeftToeBase 8.566244 -0.000000 -0.000000
Spine -10.866762 -1.784685 -1.929200
RightShoulder -28.448103 19.565111 -61.551061
RightArm 114.567005 46.100907 88.643514
RightForeArm 6.982586 -0.000000 143.622229
RightHand 8.040260 0.000000 -10.390741
RightHandThumb1 -24.326973 -0.000000 -32.862282
LeftShoulder -21.070584 -15.487346 58.360706
LeftArm 35.010912 -57.602798 -26.314639
LeftForeArm -62.017818 -0.000000 105.588835
LeftHand -10.879408 -0.000000 -9.559702
LeftHandThumb1 -26.253704 0.000000 33.147579
Head 29.149223 -7.196861 4.626948
448
root -2.884626 33.193662 0.188977 4.307623 0.094618 2.793606
RightUpLeg 2.469590 -6.095849 -2.267202
RightLeg 2.149430 -0.000000 -0.000000
RightFoot -13.014581 -4.583613 3.474238
RightToeBase 5.639907 -0.000000 -0.000000
LeftUpLeg 2.129714 1.394846 0.811201
LeftLeg 2.392112 -0.000000 -0.000000
LeftFoot -11.037461 2.692285 -9.390337
LeftToeBase 8.526014 -0.000000 -0.000000
Spine -10.807706 -1.640646 -1.898759
RightShoulder -28.489084 19.244808 -61.415588
RightArm 115.064206 46.068610 88.738047
RightForeArm 6.542518 -0.000000 143.800360
RightHand 8.138591 -0.000000 -10.227153
RightHandThumb1 -24.326973 -0.000000 -32.862282
LeftShoulder -21.022100 -15.603845 58.432275
LeftArm 34.410291 -57.571685 -26.105046
LeftForeArm -62.006462 -0.000000 105.879289
LeftHand -10.901417 -0.000000 -9.342964
LeftHandThumb1 -26.253704 0.000000 33.147579
Head 28.929774 -7.178128 4.475459
449
root -2.887983 33.196676 0.185739 4.322394 0.086610 2.793288
RightUpLeg 2.457653 -6.100495 -2.261051
RightLeg 2.126635 -0.000000 -0.000000
RightFoot -12.974331 -4.565197 3.470899
RightToeBase 5.627857 -0.000000 -0.000000
LeftUpLeg 2.127193 1.415257 0.820513
LeftLeg 2.347689 -0.000000 -0.000000
LeftFoot -10.979754 2.679717 -9.380116
LeftToeBase 8.539281 -0.000000 -0.000000
Spine -10.772071 -1.619534 -1.853190
RightShoulder -28.530870 19.202891 -61.408804
RightArm 115.273004 46.021095 88.720767
RightForeArm 6.191511 -0.000000 143.975146
RightHand 8.147130 0.000000 -9.987404
RightHandThumb1 -24.326973 -0.000000 -32.862282
LeftShoulder -21.039946 -15.670103 58.364166
LeftArm 33.954827 -57.583021 -25.752664
LeftForeArm -62.079263 -0.000000 106.023975
LeftHand -10.935062 -0.000000 -9.225626
LeftHandThumb1 -26.253704 0.000000 33.147579
Head 28.674442 -7.035989 4.309481
